<?xml version="1.0" encoding="utf-8"?>
<!-- Generator: Adobe Illustrator 27.0.0, SVG Export Plug-In . SVG Version: 6.00 Build 0)  -->
<svg version="1.1" id="图层_1" xmlns="http://www.w3.org/2000/svg" xmlns:xlink="http://www.w3.org/1999/xlink" x="0px" y="0px"
	 viewBox="0 0 244.8 68" style="enable-background:new 0 0 244.8 68;" xml:space="preserve">
<style type="text/css">
	.st0{fill:#2465B1;}
</style>
<path class="st0" d="M65.4,18.9c-2.4-2.5-5.7-4.3-9.5-4.8c-0.5,0-0.9-0.1-1.4-0.1l5.1-6.9c1-1.3,0.6-3.1-0.8-4
	c-1.4-0.9-3.3-0.6-4.2,0.7l-7,9.5l0,0c-3.9-0.3-7.8-0.4-11.7-0.4S28,13,24.1,13.3l0,0l-7-9.5c-1-1.3-2.9-1.6-4.2-0.7
	c-1.4,0.9-1.7,2.7-0.8,4l5.1,6.9c-0.5,0.1-0.9,0.1-1.4,0.2c-7.6,1-13.3,7.1-13.3,14.3v20c0,3.6,1.4,6.9,3.8,9.5
	c2.4,2.5,5.7,4.3,9.5,4.8c13.3,1.7,26.8,1.7,40.1,0c7.6-1,13.3-7.1,13.3-14.3v-20C69.3,24.8,67.8,21.5,65.4,18.9z M45.6,40.9l-11,8
	c-2.2,1.6-5.4,0.1-5.4-2.5v-16c0-2.6,3.2-4.1,5.4-2.5l11,8C47.3,37.2,47.3,39.7,45.6,40.9L45.6,40.9z"/>
<g>
	<path d="M88.5,26.7c0.4-0.2,0.7-0.4,0.9-0.6l1.5-2.3c1.3-2.8,2.2-5.4,2.7-7.6c0.5,0.3,0.9,0.6,1.4,0.8c0.7,0.4,1.9,0.9,3.5,1.5
		l-2.7,5.9c-0.3,0.7-0.6,1.3-0.9,2c0.3,0,0.6,0.1,0.8,0.2c0.3,0,0.6,0,0.8,0c0.6-1.4,1.1-2.4,1.4-3c0.4-0.9,0.9-1.8,1.7-2.7
		c0.8,0.3,1.5,0.6,2.3,0.9c0.6,0.1,1.4,0.3,2.4,0.8c-0.5,1.1-1,2.2-1.7,3.2c-1.5,2.8-2.9,5.7-4.3,8.5c0.2,0,0.4,0.1,0.6,0.2
		c0.9-0.5,2.2-0.9,4-1.4c-0.2-0.1-0.4-0.1-0.6-0.2v-5.5c2.7,0,5.4,0,8.1,0c-0.5,0.2-0.8,0.4-0.9,0.6c0.1,0,0.2,0.1,0.3,0.2
		c-0.1,0-0.1,0.1-0.2,0.2c0.2,0.1,0.3,0.2,0.5,0.3c0.1,0,0.2,0.1,0.5,0.3c-0.2,0-0.3,0.1-0.5,0.2c0.1,0.1,0.2,0.1,0.3,0.2
		c0.2,0.1,0.3,0.2,0.5,0.3l-0.6,0.3l0.6,0.3c-0.3,0-0.8,0.2-1.4,0.5c0.1,0.1,0.1,0.1,0.2,0.2c-0.2,0-0.4,0.1-0.6,0.2
		c0.1,0,0.2,0.1,0.3,0.2c-0.6,0.1-1.2,0.3-1.7,0.8c0.1,0.1,0.1,0.1,0.2,0.2c-0.4,0-0.6,0.1-0.8,0.2l-0.5,0.5
		c0.1,0.1,0.1,0.1,0.2,0.2c-0.6,0-1.3-0.1-2-0.2c-0.9,0-1.5,0.1-1.7,0.3c-0.4,0.2-0.6,0.9-0.6,2.3c0.1,0.1,0.1,0.1,0.2,0.2
		c0.6-0.4,1.1-0.6,1.5-0.8c0,0.2,0.1,0.4,0.3,0.6c-0.2,0-0.3,0.1-0.5,0.2c0.1,0,0.2,0.1,0.3,0.2c-0.4,0.1-0.9,0.3-1.5,0.6
		c0.1,0,0.2,0.1,0.3,0.2c-0.3,0-0.5,0.1-0.6,0.3c0.1,0.1,0.1,0.1,0.2,0.2c-0.2,0.1-0.3,0.2-0.5,0.3c0.1,0.1,0.1,0.1,0.2,0.2
		c-1.3,0.3-2.2,0.8-2.6,1.5c-0.2,0-0.4,0.1-0.6,0.2c0.1,0.1,0.2,0.2,0.3,0.5c-0.3,0-0.5,0.1-0.6,0.3c0.1,0.1,0.2,0.2,0.3,0.5
		c-2.6,1.1-4.6,2.2-5.9,3.2c-1.2-1.6-2.5-3.8-3.8-6.6c1.7-1.2,3.2-2.9,4.4-5l-0.2-0.2c-1.4,0.2-2.6,0.5-3.7,0.9
		c-0.2-0.7-0.4-1.4-0.6-2.3c-0.3-1.2-0.5-1.9-0.5-2C87.9,27.2,87.8,26.7,88.5,26.7z M97.6,43.3c-0.1,0-0.2,0.1-0.3,0.2
		c0.1,0,0.2,0.1,0.3,0.2c-0.1,0.1-0.2,0.1-0.3,0.2c-0.2,0.2-0.3,0.3-0.5,0.3c0.1,0,0.2,0.1,0.3,0.2c-0.6,0.1-1.4,0.4-2.4,1.1
		l0.3,0.3c0.1,0,0.2,0.1,0.5,0.3c-0.2,0-0.4,0.1-0.6,0.2c0.1,0,0.2,0.1,0.3,0.2c-0.4,0.2-0.8,0.3-1.2,0.5c-0.4,0.1-1,0.3-1.8,0.8
		l0.3,0.3c-0.2,0.1-0.4,0.1-0.6,0.2c-0.2,0.1-0.4,0.2-0.6,0.5c0.1,0.1,0.2,0.2,0.3,0.5c-0.2,0.1-0.4,0.3-0.8,0.6
		c-0.8-2.2-1.2-3.8-1.4-4.9c0.8-0.2,1.4-0.3,2-0.3l5.5-1.4C96.9,42.9,97,43,97,43C97.4,43.2,97.6,43.3,97.6,43.3z M121.2,19.6
		c0.1,0,0.2-0.1,0.5-0.3l0.6-0.3l-0.2-0.2l0.3-0.3c0.2,0,0.3-0.1,0.5-0.2v2.7c-0.4,0.7-0.9,2.1-1.7,4.1c-0.2,0.6-0.3,1-0.3,1.1
		c-0.1,0.3-0.2,0.6-0.5,0.9c0.8,0.1,2.3,0.1,4.4,0.2v5.5c-1.2,0-2,0.1-2.4,0.2l0.6,0.6c0.7,0.7,1.3,1.3,2,2l-2.1,1.8
		c-0.4,0.5-1,1.1-1.8,2c0.4,0.6,0.7,1.1,0.9,1.5c0.4,0.6,0.7,1.1,1.1,1.4l0.3,0.3c0.5,0.4,0.9,0.8,1.4,1.2c0.5,0.5,0.8,1,0.9,1.5
		c0,0.1-0.1,0.2-0.2,0.3c-0.4,0.8-0.8,1.6-1.4,2.4c-0.4,1-0.8,1.8-1.4,2.3c-0.6-0.5-1.5-1.3-2.6-2.4c-0.1,0.3-0.2,0.6-0.5,0.9
		c0,0.4-0.1,0.7-0.3,0.9c-0.6,0.7-1.7,1.2-3.2,1.7c-0.9,0.2-2.2,0.3-3.8,0.3c-0.6-0.1-1.1-0.5-1.4-1.2l-0.3-0.9
		c0-0.2-0.1-0.5-0.3-0.9c0-0.2-0.1-0.3-0.2-0.5c-0.2,0.2-0.3,0.3-0.5,0.3c-1.6,1.2-2.8,2.1-3.5,2.6c-0.2-0.2-0.4-0.4-0.6-0.8
		c-0.9-1.1-1.4-1.7-1.5-1.8c-1,0.4-2.4,0.7-4.3,1.1l-4.3,0.9c-0.6,0.2-1.5,0.4-2.7,0.6c0-0.1-0.1-0.2-0.2-0.5
		c-0.1-0.3-0.2-0.7-0.3-1.1c0.2-0.1,0.4-0.2,0.6-0.5c0.2-0.1,0.3-0.2,0.5-0.5l-0.3-0.3c0.2-0.1,0.3-0.2,0.5-0.3
		c0.2,0,0.4-0.1,0.6-0.3c-0.1-0.1-0.2-0.2-0.5-0.5c0.2,0,0.3-0.1,0.5-0.2c1.1-0.2,2-0.5,2.7-0.9c-0.1-0.1-0.2-0.1-0.3-0.2l0.6-0.3
		c-0.1-0.1-0.2-0.2-0.5-0.3c-0.1,0-0.2-0.1-0.3-0.2c0.2,0,0.4-0.1,0.6-0.3c0.6-0.1,1.3-0.3,2-0.8c-0.1-0.1-0.2-0.1-0.3-0.2
		c0.3-0.2,0.5-0.3,0.6-0.5l-0.2-0.2c0-0.1,0.1-0.1,0.2-0.2c-0.2-0.2-0.4-0.3-0.6-0.5c0.2,0,0.3-0.1,0.5-0.2c1.3-0.3,2.6-0.6,3.8-0.9
		c0.2,0.6,0.3,1.1,0.5,1.5c0,0.4,0.1,0.9,0.3,1.5l0.5,1.8l3.7-2.3c1.3-0.9,2.4-1.8,3.4-2.6c0.2-0.2,0.3-0.3,0.3-0.3
		c0.4-0.4,0.9-0.8,1.5-1.2c0.6-0.6,1-1.1,1.2-1.4c-0.2-0.1-0.3-0.2-0.5-0.3c-2.5,2.9-5.3,5-8.4,6.1c-0.4-0.8-0.7-1.4-1.1-1.8
		c-0.4-0.8-0.7-1.3-0.9-1.7c1.4-0.4,2.8-1,4.1-1.8c1.6-0.7,2.8-1.6,3.7-2.7c-0.1-0.1-0.2-0.1-0.3-0.2c-2.2,1.3-4.6,2.5-7.3,3.5
		c-0.1-0.3-0.2-0.5-0.5-0.5c-0.1-0.1-0.2-0.2-0.5-0.3c-0.1,0-0.2,0.1-0.3,0.2c-0.6,0.2-1.2,0.4-1.7,0.6l-0.3-0.6
		c0.2-0.1,0.4-0.2,0.8-0.3c-0.2-0.1-0.3-0.2-0.5-0.3c0.6-0.4,1.1-0.7,1.5-0.9c0.5-0.4,1-0.6,1.7-0.8l-0.2-0.2l0.6-0.3
		c-0.1-0.1-0.1-0.2-0.2-0.3c0.2-0.1,0.4-0.1,0.6-0.2l-0.3-0.3c0.2,0,0.4-0.1,0.6-0.2c0.3-0.1,0.6-0.2,0.8-0.3
		c-0.1-0.1-0.2-0.1-0.3-0.2c0.1-0.1,0.2-0.2,0.5-0.3c-0.1-0.2-0.2-0.3-0.3-0.5c0.9-0.6,1.8-1.1,2.6-1.5l-0.2-0.2
		c0-0.1,0.1-0.1,0.2-0.2c-0.1-0.1-0.1-0.2-0.2-0.3c0.1,0,0.2-0.1,0.3-0.2c0.4-0.2,0.7-0.3,0.9-0.3l-0.2-0.2c0.3-0.1,0.6-0.2,0.9-0.5
		c0.1,0,0.3-0.1,0.8-0.3l-0.2-0.2c0.1-0.1,0.2-0.1,0.5-0.2l-0.2-0.2c0.2,0,0.4-0.1,0.6-0.2c0.3-0.1,0.6-0.2,0.8-0.3l-0.6-0.3
		l0.6-0.3c-0.1-0.1-0.2-0.2-0.5-0.3c-0.1,0-0.2-0.1-0.3-0.2c0.1-0.1,0.2-0.1,0.5-0.2c-0.2-0.2-0.3-0.3-0.5-0.3
		c-0.1-0.1-0.2-0.2-0.5-0.3c0-0.1,0.1-0.1,0.2-0.2l-0.3-0.3c0.4-0.2,1.2-0.3,2.4-0.3c0.3,0,0.6-0.1,0.8-0.2c0.1-0.1,0.1-0.2,0.2-0.5
		l0.3-0.3c-0.6-0.2-1-0.3-1.2-0.3c0.1,0,0.2-0.1,0.5-0.3c0.2,0,0.3-0.1,0.5-0.2c-0.1-0.1-0.1-0.2-0.2-0.3c0.1-0.1,0.2-0.1,0.5-0.2
		l-0.2-0.2c0.3-0.2,0.6-0.3,0.9-0.5l-0.3-0.3c0.4-0.2,0.6-0.3,0.6-0.3c0.2-0.1,0.3-0.2,0.5-0.5c-0.1-0.1-0.2-0.1-0.3-0.2
		c0.7-0.4,1.7-0.8,2.9-1.2c-0.1-0.1-0.2-0.1-0.3-0.2c0-0.1,0.1-0.1,0.2-0.2l-0.6-0.3c0.2-0.1,0.4-0.1,0.6-0.2l-0.2-0.2
		c0.3-0.1,0.7-0.3,1.1-0.8C120.3,20,120.8,19.7,121.2,19.6z M104,24c0.8-2.8,1.5-4.8,2.3-6.1c0.1-0.2,0.1-0.5,0.2-1.1
		c0.2-0.5,0.4-0.8,0.6-0.9c0.1-0.1,0.3-0.1,0.8-0.2c0.2,0.1,0.4,0.1,0.8,0.2h4.6c-0.4,0.6-0.6,1.2-0.8,1.8h3.4
		c2.4-0.2,4.3,0,5.5,0.5c-0.4,0.2-0.7,0.4-1.1,0.6c0,0.1,0.1,0.2,0.2,0.3c-0.8,0.2-1.7,0.8-2.7,1.8c-0.3,0.2-0.6,0.3-0.9,0.5
		c0.1,0.1,0.1,0.1,0.2,0.2c-0.2,0-0.3,0.1-0.5,0.2c0.1,0.1,0.2,0.2,0.5,0.3c-0.1,0-0.1,0.1-0.2,0.2c0.1,0,0.2,0.1,0.3,0.2
		c-1.2,0.4-2.2,0.8-2.9,1.2c0.1,0,0.2,0.1,0.3,0.2c-0.3,0.2-0.5,0.3-0.5,0.5c-0.1,0.2-0.2,0.3-0.5,0.5l0.3,0.3
		c-0.4,0-0.7,0.1-0.9,0.3c0.1,0.1,0.1,0.1,0.2,0.2c-0.2,0.1-0.3,0.2-0.5,0.3c0.1,0.1,0.1,0.1,0.2,0.2c-0.4,0-0.7,0.2-1.1,0.5
		c0.1,0.1,0.1,0.1,0.2,0.2c-2.8,0-5.7,0-8.7,0v-0.2C103.4,25.6,103.7,24.8,104,24z M110.7,23.1c0.5,0,0.9,0,1.4,0
		c1.4,0.2,2.3-0.2,2.7-1.2c-0.4-0.1-1-0.1-2-0.2H111c-0.3,0.3-0.5,0.7-0.5,1.2C110.6,23,110.7,23,110.7,23.1z M114.8,45
		c0-0.4,0.1-0.8,0.3-1.2l-0.2-0.2c-0.2,0.2-0.3,0.3-0.5,0.3c-0.5,0.5-1.3,1.4-2.6,2.9c0.3,0,0.6,0.1,0.8,0.2c0.3,0,0.6,0,0.8,0
		C113.9,46.5,114.4,45.8,114.8,45z M116.2,33.9c0.2,0.1,0.6,0.3,1.2,0.8c0.3-0.5,0.9-1,1.8-1.7c-0.4-0.1-0.9-0.1-1.7-0.2
		c-0.5,0-1,0-1.7,0c-0.2,0.2-0.3,0.4-0.5,0.6C115.6,33.4,115.9,33.6,116.2,33.9z"/>
	<path d="M128.7,45.5l1.8-0.3c2.4-0.4,4.3-0.8,5.5-1.2c-0.4-0.1-0.9-0.1-1.7-0.2h-1.5c0-2.6,0-5.3,0-8.1v-1.5V33
		c-0.2-0.2-0.7-0.3-1.5-0.3c-0.5,0.1-1,0.1-1.5,0.2c0-2.8,0-5.7,0-8.7c1.7,0,2.9-0.1,3.7-0.3c-0.4-0.8-1-1.9-1.8-3.4
		c-0.1-0.4-0.3-0.9-0.8-1.5c0.6-0.4,1.5-0.9,2.7-1.5c0.9-0.3,1.9-0.7,2.9-1.2c0.1,0.1,0.5,0.7,1.2,2c0.5,0.9,1.2,2.5,2.3,4.7
		c-0.8,0.4-1.3,0.7-1.7,1.1c1,0.1,2.7,0.1,5.2,0.2c0-0.1,0.1-0.1,0.2-0.2c-0.2-0.3-0.4-0.7-0.6-1.1l-2.1-4.6c1-0.6,1.8-1,2.4-1.2
		c0.8-0.5,1.6-0.7,2.4-0.8h-0.2c-0.2,0.1-0.4,0.2-0.6,0.5c0.2,0.1,0.4,0.2,0.6,0.5c-0.1,0-0.2,0.1-0.3,0.2c0.1,0,0.2,0.1,0.5,0.2
		c-0.1,0-0.2,0.1-0.3,0.2c0.1,0.1,0.2,0.2,0.5,0.3c-0.2,0-0.4,0.2-0.8,0.5c0.2,0,0.3,0.1,0.5,0.2c0.2,0.1,0.3,0.1,0.5,0.2l-0.3,0.3
		c0.1,0.1,0.1,0.1,0.2,0.2c-0.4,0.2-0.7,0.4-1.1,0.6c0.1,0.1,0.2,0.2,0.3,0.5c-0.1,0-0.2,0.1-0.3,0.2c0.1,0.1,0.1,0.1,0.2,0.2
		c-0.4,0-0.6,0.1-0.8,0.3c0.1,0,0.2,0.1,0.3,0.2c-0.3,0-0.6,0.2-0.9,0.5l0.3,0.3c0.1,0,0.2,0.1,0.5,0.3l-0.3,0.3l0.6,0.3
		c-0.1,0-0.2,0.1-0.3,0.2c0.1,0,0.2,0.1,0.5,0.2c-0.4,0-0.6,0.1-0.8,0.3c0.1,0,0.2,0.1,0.3,0.2c-0.1,0-0.2,0.1-0.3,0.2
		c0.3,0.3,0.6,0.6,0.8,0.8c-0.8,0.4-1.3,0.7-1.7,0.9c0.1,0,0.2,0.1,0.5,0.2c-0.3,0-0.6,0.1-0.8,0.3c0.4,0.2,0.7,0.4,1.1,0.8
		l-0.3,0.6c0.2,0.2,0.6,0.4,1.2,0.8c-0.4,0.2-0.7,0.4-1.1,0.6c0.1,0,0.2,0.1,0.3,0.2c-0.1,0-0.2,0.1-0.3,0.2
		c0.1,0.2,0.2,0.4,0.5,0.6c-0.9,0-1.6-0.1-2-0.2c-2.7-0.2-4.6-0.1-5.6,0.2c-0.4,0.1-0.6,0.2-0.6,0.3v0.9c0.7,0.1,1.9,0.1,3.5,0.2
		c1.2,0,2.4,0,3.5,0c-0.1,0-0.2,0.1-0.3,0.2c0.1,0,0.2,0.1,0.5,0.2c-0.2,0.1-0.3,0.2-0.5,0.5c0.1,0,0.2,0.1,0.5,0.2
		c-0.2,0-0.3,0.1-0.5,0.2c0.1,0.1,0.2,0.2,0.5,0.3l-0.3,0.3c0.2,0.2,0.5,0.4,0.9,0.6c0.4,0.4,0.6,0.7,0.8,0.9
		c-0.3,0.4-0.7,0.7-1.1,1.1c0.4,0.2,0.7,0.4,0.9,0.6h-4.3c-0.2,0-0.4,0-0.8,0h-0.6c-0.3,0.2-0.4,0.6-0.2,1.4c0,0.2,0,0.3,0,0.5v5.2
		c0.1,0,0.2,0.1,0.3,0.2c2.1-1.6,3.2-3.7,3.2-6.2c1,0,2,0,2.9,0h-0.2c-0.4,0.2-0.6,0.5-0.8,0.9l0.3,0.3c-0.1,0-0.1,0.1-0.2,0.2
		c0.1,0,0.2,0.1,0.3,0.2c-0.4,0.1-0.6,0.3-0.8,0.6c0.2,0.2,0.3,0.3,0.5,0.5c-0.1,0.1-0.2,0.2-0.5,0.3l-0.3,0.3
		c0.1,0.1,0.1,0.1,0.2,0.2c-0.2,0.1-0.3,0.2-0.5,0.3l0.6,0.3c-0.2,0-0.3,0.1-0.5,0.2l0.3,0.3c0.1,0,0.2,0.1,0.5,0.3
		c-0.6,0.2-1,0.4-1.2,0.6c0.1,0.1,0.1,0.1,0.2,0.2c-0.3,0.1-0.7,0.3-1.1,0.8c0.1,0,0.2,0.1,0.3,0.2c-0.2,0.1-0.3,0.2-0.5,0.3
		c0.6,0.4,1.5,0.7,2.7,1.1c-0.1,0-0.2,0.1-0.3,0.2c0.1,0.1,0.2,0.2,0.5,0.3c-0.1,0-0.2,0.1-0.3,0.2l0.3,0.3c-0.2,0-0.3,0.1-0.5,0.2
		c0.1,0,0.2,0.1,0.5,0.2c-0.1,0.1-0.2,0.1-0.3,0.2c-0.1,0.2-0.2,0.3-0.3,0.5c0.1,0,0.2,0.1,0.5,0.2c-1.5,1.1-3.7,2.2-6.6,3.2
		c-2.2,0.8-4.5,1.5-6.9,2.3c-0.4-1-0.9-2.4-1.5-4.3C128.9,46.2,128.6,45.5,128.7,45.5z M145.9,21.4l0.6-0.3
		c-0.1-0.1-0.2-0.1-0.3-0.2c0.2-0.2,0.4-0.3,0.8-0.3l-0.2-0.2c0.1-0.2,0.2-0.3,0.3-0.5c-0.1-0.1-0.2-0.1-0.3-0.2
		c0.3-0.3,0.6-0.5,0.9-0.6l-0.2-0.2l0.3-0.3c-0.1,0-0.2-0.1-0.5-0.3c-0.1,0-0.2-0.1-0.3-0.2l0.6-0.3c-0.2-0.1-0.3-0.2-0.5-0.3
		c0.1-0.1,0.2-0.1,0.3-0.2c-0.2-0.1-0.3-0.1-0.5-0.2c0.1-0.1,0.2-0.1,0.3-0.2c-0.1-0.1-0.2-0.2-0.5-0.5c0.2-0.2,0.4-0.3,0.6-0.5
		c-0.1-0.1-0.2-0.1-0.3-0.2c0.1-0.1,0.3-0.1,0.8-0.2c0.2,0.4,0.3,0.6,0.3,0.8c0.5,0.9,0.9,1.8,1.4,2.7c0.5,1,0.9,2,1.2,2.9
		c-0.8,0.3-1.7,0.8-2.6,1.5c0.8,0.1,2.2,0.1,4.1,0.2c0.6-1.3,1.2-2.7,1.7-4.1c0.3-0.9,0.8-2.2,1.4-3.8c0.4,0.2,0.7,0.3,1.1,0.3
		c1.2,0.5,2.3,0.9,3.4,1.2c0.7,0,1.1,0.1,1.4,0.3c0,0.2,0.1,0.4,0.2,0.6c-0.1,0.5-0.2,0.9-0.5,1.4c0,0.1-0.3,0.7-0.8,2
		c-0.2,0.7-0.4,1.3-0.6,2c0.6,0,1.1,0.1,1.4,0.2h1.5c0,2.9,0,5.8,0,8.7c-0.2,0-0.4,0-0.8,0c-1.5-0.2-2.3-0.2-2.4,0
		c-0.3,0.3-0.4,1-0.2,2.1v0.6v8.2c0.3,0.1,0.6,0.1,0.8,0.2c0.4,0.1,1.1,0.2,2.1,0.5c0.3,0,0.6,0,0.8,0c0.4,0,0.6,0.1,0.8,0.2v1.7
		c0,0.2,0,0.3,0,0.5c-0.2,0.4-0.3,0.7-0.3,0.9c-0.9,2.2-2.2,3.4-3.8,3.7c-1.1,0.1-2.7,0.1-4.9,0.2c-1.1-0.1-2.7-0.1-4.7-0.2
		l-0.2-0.2c0.1-0.1,0.2-0.1,0.3-0.2l-0.6-0.3l0.6-0.3c-0.4-0.2-0.6-0.3-0.8-0.3c0.1-0.1,0.2-0.2,0.5-0.3c-0.2-0.1-0.4-0.2-0.8-0.5
		l-0.6-0.3c0.1-0.1,0.2-0.2,0.5-0.3c-0.4-0.4-0.6-0.6-0.8-0.6c0-0.1,0.1-0.2,0.2-0.3c-0.6-0.3-1-0.6-1.1-0.8c0-0.4-0.1-0.8-0.2-1.2
		c-0.1,0.1-0.2,0.2-0.5,0.3c-0.1,0.1-0.2,0.1-0.5,0.2c0.1-0.1,0.2-0.2,0.3-0.5c0.1,0,0.2-0.1,0.3-0.2c-0.2-0.1-0.3-0.1-0.5-0.2
		c0.1-0.1,0.2-0.1,0.5-0.2l-0.3-0.3c0.1-0.1,0.2-0.1,0.3-0.2c-0.4-0.2-0.6-0.3-0.8-0.5l-2.1-1.1c0.1-0.1,0.2-0.2,0.5-0.3
		c-0.1-0.1-0.2-0.1-0.3-0.2c0.4-0.4,0.7-0.6,0.9-0.8l-0.2-0.2c0.2-0.2,0.6-0.4,1.2-0.6c-0.2-0.2-0.3-0.3-0.5-0.3l-0.3-0.3
		c0.1-0.1,0.2-0.1,0.5-0.2l-0.6-0.3c0.1-0.1,0.2-0.2,0.5-0.3l-0.2-0.2c0.2,0,0.3-0.1,0.5-0.2c0.1,0,0.2-0.1,0.3-0.2l-0.2-0.2
		l0.3-0.3l-0.6-0.3c0.3-0.3,0.6-0.5,0.9-0.6c-0.1-0.1-0.2-0.1-0.3-0.2c0-0.1,0.1-0.1,0.2-0.2c-0.1-0.1-0.2-0.2-0.5-0.5
		c0-0.1,0.1-0.1,0.2-0.2l-0.2-0.2c0.8-0.3,2.2-0.5,4.3-0.5c0,1.1,0,2.2,0,3.2c-0.2,0.6-0.3,1.2-0.3,1.7c0.6,0.1,1.7,0.1,3.4,0.2
		c0.1-1.2,0.1-3.1,0.2-5.8c-0.4-0.1-1.1-0.1-2.1-0.2h-2.1c-1.9,0-3.2-0.2-3.8-0.6c0.5-0.3,0.9-0.7,1.2-1.2c-0.5-0.6-1-1-1.7-1.1
		c0-0.1,0.1-0.1,0.2-0.2l-0.3-0.3l0.3-0.3c-0.2-0.1-0.3-0.1-0.5-0.2c0.1-0.1,0.2-0.1,0.5-0.2c-0.2-0.1-0.3-0.2-0.5-0.3
		c0.1-0.1,0.2-0.2,0.5-0.3c-0.2-0.1-0.3-0.1-0.5-0.2c0.9-0.2,2.3-0.3,4.3-0.3c0.9,0.1,2.3,0.1,4.1,0.2h0.6c1.1,0.2,1.9,0.2,2.4,0
		c0.1-0.2,0.1-0.6,0.2-1.2c-1.5-0.3-3.3-0.4-5.3-0.2c-0.5,0-1,0-1.7,0c-0.6,0-1.3,0-2,0c-0.6-0.2-1.1-0.4-1.5-0.6
		c0.1-0.1,0.2-0.1,0.3-0.2c-0.1-0.1-0.2-0.1-0.3-0.2c0.2-0.2,0.6-0.4,1.2-0.6c-0.6-0.5-1.2-0.8-1.7-0.9c0.2-0.2,0.3-0.3,0.3-0.3
		c0.1,0,0.2-0.1,0.3-0.3c-0.3-0.2-0.7-0.4-1.1-0.6c0.2,0,0.3-0.1,0.5-0.2c0.1,0,0.2-0.1,0.3-0.2c-0.2-0.1-0.3-0.1-0.5-0.2l1.8-0.9
		l-0.6-0.3c0-0.1,0.1-0.1,0.2-0.2l-0.3-0.3c0.1-0.1,0.2-0.1,0.3-0.2c-0.1-0.1-0.2-0.1-0.3-0.2c0.2-0.2,0.4-0.3,0.8-0.3
		c-0.2-0.1-0.3-0.1-0.5-0.2c0.1-0.1,0.2-0.1,0.3-0.2c-0.3-0.2-0.5-0.3-0.6-0.5c0.1-0.1,0.2-0.1,0.3-0.2c-0.2-0.2-0.3-0.3-0.5-0.3
		c-0.1-0.1-0.2-0.2-0.5-0.3C145.5,21.5,145.7,21.4,145.9,21.4z M148.2,50.3c-0.3,0-0.6,0.1-0.8,0.3l0.6,0.3c-0.1,0-0.2,0.1-0.3,0.2
		c0.1,0.1,0.1,0.1,0.2,0.2c-0.1,0-0.2,0-0.5,0c-1.3-0.3-2.1-0.9-2.3-1.7c0-1.1,0.2-1.8,0.5-2.1c0.2,0,0.4,0.2,0.8,0.5
		c-0.1,0.1-0.1,0.2-0.2,0.3c0.2,0,0.4,0.2,0.8,0.5c-0.2,0.1-0.3,0.2-0.5,0.3c0.2,0.2,0.4,0.3,0.6,0.5c0.2,0.2,0.4,0.3,0.6,0.5
		c-0.2,0-0.3,0.1-0.5,0.2l0.6,0.3H148.2z M156.1,46.2c1.7,0,2.6-0.8,2.6-2.3c-0.6-0.1-1.5-0.1-2.7-0.2c-0.8,0-1.7,0-2.6,0
		c-0.1,0.3-0.1,0.9-0.2,1.7C153.8,45.9,154.8,46.2,156.1,46.2z"/>
	<path d="M166.3,47c0.1-0.1,0.4-0.6,1.1-1.5c0.2-0.4,0.4-0.6,0.6-0.8c0.2-0.2,0.3-0.4,0.5-0.8c0.6-0.8,1.1-1.3,1.4-1.7
		c-0.3-0.1-0.8-0.1-1.4-0.2v-7.9h17.7v7.9c-0.6,0-1,0.1-1.2,0.2c0.1,0.1,0.1,0.2,0.2,0.3c0.6,1.2,1.2,2,1.7,2.4
		c1-0.4,1.8-0.7,2.4-0.9c0.8-0.3,1.5-0.6,2.3-0.9c1.1-0.7,2.6-2,4.6-4c0.5-0.4,0.9-0.8,1.4-1.4c-0.2,0.1-0.3,0.2-0.5,0.5
		c0.1,0,0.2,0.1,0.3,0.2c0.2,0.1,0.4,0.1,0.6,0.2l-0.3,0.3c1.1,0.5,2.6,1.7,4.6,3.7c-0.9,0.8-2.2,2-3.8,3.7c-1.6,1.4-2.9,2.4-3.8,3
		c-0.5,0.3-1,0.6-1.5,0.8c-2.4,0.9-4,1.5-4.6,1.8c0-0.1-0.1-0.2-0.2-0.5c-0.1-0.2-0.2-0.6-0.5-1.2c0-0.3-0.2-0.7-0.5-1.2
		c-0.3,0.2-0.7,0.4-1.1,0.6c-0.6,0.3-1.5,0.9-2.7,1.7c-0.5-1.5-1.5-3.5-3-5.8c-0.1,0.4-0.1,0.9-0.2,1.7V49c-0.1,1.1-0.9,1.9-2.4,2.3
		c-0.8,0.3-2.1,0.5-3.8,0.5c-0.3-0.7-0.6-1.4-0.9-2.3c-0.4-1-0.7-1.7-0.9-2.1c-0.6,0.8-1.1,1.4-1.4,2c-0.2,0.4-0.6,1.1-1.2,2.1
		c-0.7-1.1-1.5-2.2-2.4-3.4l-0.9-0.9V47z M167.2,29.2c0.6,0,1.2,0,1.7,0c1.7,0.2,3.4,0.2,5,0c0.3-0.1,0.5-0.2,0.5-0.3
		c0.1-0.1,0.1-0.3,0.2-0.6c-1.3-0.3-2.8-0.4-4.6-0.2c-0.4,0-0.8,0-1.4,0V17.4c1.7,1.1,3.2,1.8,4.6,2c-0.1,0.1-0.2,0.1-0.3,0.2
		l-0.3,0.3c0.1,0.1,0.2,0.1,0.3,0.2c0.6,0.2,1,0.3,1.2,0.5c0.2,0.1,0.4,0.2,0.6,0.5c0.2,0.3,0.4,0.5,0.8,0.5c-0.1,0-0.2,0.1-0.3,0.2
		c0.2,0.2,0.4,0.3,0.6,0.3l0.6,0.3l-0.3,0.3c0.2,0,0.4,0.1,0.6,0.2c-0.1,0-0.1,0.1-0.2,0.2c0.2,0.2,0.3,0.3,0.5,0.3l0.6,0.3
		c-0.1,0-0.1,0.1-0.2,0.2l0.3,0.3h-1.2h-1.2c-0.4,0-0.6,0.3-0.8,0.8c1.1,0.1,3,0.1,5.8,0.2c-0.1,0-0.1,0.1-0.2,0.2
		c0.8,0.5,1.8,0.9,2.9,1.2c-0.3,0-0.6,0.2-0.8,0.5c0.1,0,0.2,0.1,0.5,0.2c-0.1,0-0.1,0.1-0.2,0.2c0.4,0.2,0.7,0.3,1.1,0.5
		c0.3,0,0.7,0.1,1.1,0.3c0.5,0.2,0.9,0.3,1.4,0.5c-0.8,0-1.6-0.1-2.4-0.2c-1,0-1.7,0.1-2.1,0.2c-0.4,0.2-0.6,0.3-0.6,0.3V29
		c0.7,0.1,1.8,0.1,3.4,0.2h3.4c0,0.3,0,0.6,0,0.8c-0.2,0.1-0.3,0.2-0.5,0.3c0.1,0.2,0.2,0.4,0.5,0.6c-0.1,0-0.1,0.1-0.2,0.2
		c0,0.8,0.2,1.5,0.5,2.1c0.3-0.2,0.9-0.4,1.7-0.6c0.1,0,0.3,0.1,0.8,0.3l-0.3,0.3c0.2,0,0.3,0.1,0.5,0.2c0.3,0.1,0.6,0.1,0.8,0.2
		c-0.1,0-0.1,0.1-0.2,0.2c0.2,0,0.4,0.1,0.6,0.2c-0.1,0-0.1,0.1-0.2,0.2c0.6,0.4,1.1,0.7,1.5,0.9c-0.1,0-0.2,0.1-0.3,0.2
		c0.2,0.2,0.3,0.3,0.3,0.3c0.2,0.1,0.3,0.1,0.5,0.2c-0.1,0-0.2,0.1-0.3,0.2c0.2,0,0.4,0.1,0.6,0.2h0.6c-0.1,0.1-0.1,0.2-0.2,0.3h0.3
		c0.3,0.2,0.6,0.3,0.9,0.5c-2.6,1.6-4.6,2.7-6.1,3.2c-0.1-0.6-0.3-1.3-0.8-2c-0.4-0.8-0.7-1.4-0.9-2c-0.7-1.4-1-2.1-1.1-2.1
		c0-0.1,0.1-0.1,0.2-0.2c-1.5-0.3-3.3-0.4-5.3-0.2c-0.5,0-1,0-1.7,0c-4.1,0-8.4,0-12.6,0c0-1,0-2.1,0-3.2c0-0.1,0-0.2,0-0.5
		C167.2,29.5,167.2,29.4,167.2,29.2z M188.3,17c0,2,0,3,0,3c0,1.3,0.1,2.2,0.3,2.7c2.2-1.2,3.8-2.2,4.9-2.9c1.5-0.8,3-2,4.6-3.5
		c0.4,0.6,0.6,1.1,0.8,1.4c1.2,1.8,2.2,3.1,2.9,4c-1.6,1.6-3.3,3-5.2,4.3c-1.7,1.4-3.6,2.4-5.6,3c-0.1-0.3-0.2-0.7-0.5-1.1
		c-0.3-0.7-0.6-1.4-0.9-2.3c-0.4-1-0.7-1.7-1.1-2.1c-0.1,0.5-0.1,1.2-0.2,2.3c-0.1,0.5-0.1,1.2-0.2,2.3c-1.3-0.5-2.5-0.9-3.7-1.2
		c0-0.1,0.1-0.1,0.2-0.2c-0.2-0.1-0.3-0.1-0.5-0.2c0.1-0.1,0.3-0.2,0.8-0.5c-0.6-0.3-0.9-0.4-0.8-0.3c-0.5-0.2-1.1-0.5-2-0.9
		c0-0.1,0.1-0.1,0.2-0.2c-0.2-0.7-0.8-1-2-1.1c-0.3,0-0.6-0.1-0.9-0.2c0-0.1,0.1-0.1,0.2-0.2l-0.3-0.3l-0.9-0.3
		c0-0.1,0.1-0.1,0.2-0.2c-0.2-0.1-0.4-0.1-0.6-0.2l0.3-0.3c-0.3-0.2-0.7-0.4-1.1-0.6c0.7-0.3,1.3-0.4,2-0.3c0.8,0,1.5,0,2.3,0
		c0.2,0,0.4-0.1,0.6-0.2c0-0.2,0.1-0.4,0.2-0.6c-0.6-0.1-1.6-0.1-2.9-0.2h-2.7c-0.1,0-0.1,0.1-0.2,0.2c-0.4-0.2-0.7-0.3-1.1-0.3
		c-0.4-0.2-0.6-0.3-0.8-0.3c0.1-0.2,0.2-0.3,0.5-0.5c-1.6-0.6-2.7-1.1-3.4-1.4l-0.9-0.6l-0.5-0.5H188.3z M172.4,42.6
		c0.5,0.6,0.9,1.4,1.4,2.3c-0.3,0.3-0.7,0.9-1.1,1.7c0.3,0,0.6,0.1,0.8,0.2h0.9c0.3-0.7,0.5-1.8,0.5-3.4c0-0.3,0-0.7,0-1.1
		c-0.5-0.1-1.3-0.1-2.4-0.2c-0.1,0.1-0.1,0.2-0.2,0.3C172.3,42.5,172.4,42.5,172.4,42.6z M174.4,38.8h1.2c2,0.2,3.4,0.2,4.3,0
		c0.3-0.2,0.5-0.5,0.5-1.1c-1.3-0.3-2.8-0.4-4.6-0.2c-0.4,0-0.8,0-1.4,0c-0.1,0.2-0.1,0.5-0.2,1.1C174.3,38.7,174.4,38.7,174.4,38.8
		z M180.5,44.1c0.6-0.4,1.2-0.7,1.8-0.9c0.7-0.3,1.3-0.6,2-0.9c-0.4-0.1-1-0.1-2-0.2h-1.8c-0.1,0.3-0.1,0.9-0.2,1.8
		C180.4,44,180.5,44.1,180.5,44.1z M189,30.2c0.1-0.1,0.2-0.1,0.3-0.2v0.6C189.3,30.5,189.1,30.3,189,30.2z M202.9,31.9
		c-2.4,2.2-4.3,3.7-5.6,4.4c-0.3-0.1-0.7-0.2-1.1-0.5c-0.6-0.2-1-0.3-1.1-0.3c0.1-0.1,0.2-0.1,0.3-0.2c-0.3-0.2-0.5-0.3-0.6-0.5
		c0-0.1,0.1-0.1,0.2-0.2c-0.2-0.2-0.3-0.3-0.5-0.3c-0.3-0.2-0.7-0.4-1.1-0.6c0-0.1,0.1-0.1,0.2-0.2c-0.2-0.1-0.4-0.1-0.6-0.2
		c0-0.1,0.1-0.1,0.2-0.2c-0.2-0.1-0.4-0.2-0.8-0.3c-0.1,0-0.2-0.1-0.5-0.2c0.1-0.1,0.2-0.1,0.3-0.2c-0.1,0-0.2-0.1-0.5-0.3
		c-0.1,0-0.2-0.1-0.3-0.2c0.9-0.7,2.4-1.7,4.4-2.9c0.6-0.5,1.2-1,1.7-1.5c0.7-0.7,1.2-1.1,1.7-1.4c0.2,0.2,0.3,0.3,0.3,0.3l0.9,1.4
		C200.8,29,201.6,30.2,202.9,31.9z M200.4,39.1c0.1,0.1,0.2,0.2,0.3,0.5c-0.6-0.3-1.1-0.5-1.4-0.6c0.1-0.1,0.2-0.2,0.5-0.3
		c-0.2,0-0.4-0.1-0.6-0.2c-0.1-0.1-0.2-0.1-0.5-0.2c0.1-0.1,0.2-0.2,0.5-0.3C199.7,38.3,200.1,38.7,200.4,39.1z"/>
	<path d="M205.5,36.2c2.8-1.5,5.3-4.2,7.5-8.1c-1.4-0.3-3-0.4-4.7-0.2h-1.5v-6.7c0.4,0,0.7,0,1.1,0c1.4,0,2.2-0.3,2.4-0.8
		c0.1,0.2,0.1,0.3,0.2,0.5c0.1,0,0.2,0.1,0.5,0.3c-0.1,0-0.2,0.1-0.3,0.2c0.1,0.1,0.2,0.2,0.5,0.3c-0.1,0-0.1,0.1-0.2,0.2
		c0.2,0,0.4,0.1,0.6,0.2c-0.3,0.1-0.6,0.3-0.9,0.8c0.3,0.1,0.7,0.2,1.1,0.5c0.6,0.2,1,0.3,1.2,0.3c-0.1,0-0.2,0.1-0.3,0.2
		c1,0.3,1.9,0.7,2.7,1.2c-0.1,0-0.1,0.1-0.2,0.2c0.2,0.1,0.3,0.2,0.5,0.3c0.7,0.3,1.3,0.6,2,0.9c-0.2,0.1-0.3,0.2-0.5,0.3
		c0.1,0,0.2,0.1,0.3,0.2c0.2,0.1,0.4,0.1,0.6,0.2c-0.1,0-0.2,0.1-0.3,0.2c0.8,0.3,1.4,0.8,1.8,1.4c-0.1,0.4-0.2,0.7-0.5,1.1
		c-0.2,0.5-0.4,0.9-0.6,1.4c-0.3,0.8-0.5,1.3-0.6,1.5c0.4,0.2,0.9,0.5,1.5,0.9c0.6,0.5,1.2,0.8,1.7,1.1v-2.1c0-1.6,0.1-2.7,0.3-3.4
		l0.6,0.3c-0.1,0.1-0.1,0.2-0.2,0.3c0.1,0,0.2,0.1,0.3,0.2c-0.2,0.1-0.3,0.2-0.5,0.5l0.6,0.3l-0.3,0.3l0.3,0.3
		c-0.1,0-0.1,0.1-0.2,0.2c0.1,0.1,0.2,0.1,0.3,0.2c0.4,0.3,0.8,0.6,1.2,0.8l-0.6,0.3c0.5,0.4,1.1,0.6,2,0.8c-0.1,0-0.2,0.1-0.3,0.2
		c0.1,0.1,0.1,0.1,0.2,0.2c-0.2,0.1-0.3,0.2-0.5,0.5c0.2,0.1,0.3,0.2,0.5,0.3c0.1,0,0.2,0.1,0.5,0.3c-0.1,0-0.1,0.1-0.2,0.2l0.6,0.3
		c0.1,0.2,0.1,0.8,0.2,1.8c0,0.7,0,1.3,0,2c0.3-0.5,0.5-1,0.6-1.7c0.2-0.8,0.3-1.3,0.5-1.7c0.3,0.1,0.7,0.2,1.1,0.5
		c0.4,0.3,0.8,0.5,1.2,0.6c-0.1,0.1-0.2,0.2-0.3,0.5c1,0.5,1.8,0.9,2.4,1.4c-0.1,0-0.2,0.1-0.3,0.2c0.2,0,0.3,0.1,0.5,0.2
		c0.2,0.1,0.4,0.1,0.6,0.2c-0.1,0-0.1,0.1-0.2,0.2c0.1,0,0.2,0.1,0.3,0.2c-0.4,0.2-0.6,0.4-0.8,0.6c0.5,0.2,0.9,0.3,1.4,0.5
		c0.6,0.2,1.1,0.4,1.4,0.6c-0.1,0-0.1,0.1-0.2,0.2c0.1,0.1,0.1,0.1,0.2,0.2c-0.1,0-0.1,0.1-0.2,0.2c0.2,0,0.4,0.1,0.6,0.3
		c-0.2,0-0.4,0.1-0.6,0.2c0.1,0,0.2,0.1,0.5,0.2l-0.3,0.3c0.1,0.1,0.1,0.1,0.2,0.2c-0.1,0.1-0.1,0.2-0.2,0.3
		c0.3,0.1,0.6,0.2,0.8,0.3c0.2,0.2,0.2,0.3,0,0.5c0,1.1,0,1.7,0,1.7c0.1,0.2,0.3,0.3,0.6,0.3h0.9c0.1-0.1,0.2-0.1,0.5-0.2
		c-0.1,0.1-0.2,0.2-0.3,0.5c0.1,0.1,0.1,0.1,0.2,0.2c-0.1,0-0.1,0.1-0.2,0.2c0.2,0.4,0.3,0.6,0.3,0.6c0,0.1,0.1,0.2,0.3,0.5
		c-0.1,0-0.1,0.1-0.2,0.2c0.2,0,0.3,0.1,0.5,0.2c0.2,0.1,0.4,0.1,0.6,0.2c-0.2,0.1-0.3,0.2-0.5,0.3c0.2,0,0.4,0.1,0.6,0.2
		c-0.1,0-0.1,0.1-0.2,0.2c0.1,0.1,0.2,0.1,0.5,0.2c0.3,0.1,0.6,0.2,0.8,0.3c0,0.3,0,0.6,0,0.8c-0.1,0-0.2,0.1-0.3,0.2
		c0.2,0.1,0.5,0.3,0.9,0.8c-0.8,0.7-1.9,1-3.4,1.1c-1.4,0.2-2.7,0.2-4,0c-0.3,0-0.7,0-1.1,0c-1.6-0.3-2.4-1.4-2.4-3.4
		c0-0.5-0.1-1-0.2-1.5c-1.7,1.9-3.6,3.6-5.6,5.2c-0.4-0.4-0.8-0.8-1.4-1.2c-2-1.8-3.4-2.9-4.3-3.2c1.2-0.8,2.2-1.4,2.9-1.8l2.7-2.3
		l1.5-1.8c0.2-0.3,0.3-0.7,0.5-1.1c0.1-0.3,0.2-0.7,0.5-1.1c-0.5-0.1-1.3-0.1-2.4-0.2H221c-0.3,0.5-0.6,0.9-0.9,1.4
		c-0.4,0.6-0.6,1-0.8,1.2c-0.1-0.1-0.2-0.2-0.5-0.3c-0.7-0.5-1.4-1-2.3-1.7c-0.2,0.9-0.3,2.4-0.3,4.4v4.9c0.1,0.6,0.1,1.6,0.2,2.9
		c-2,0-4.1,0-6.2,0c0-1.1,0.1-2,0.2-2.6c0-1.3,0-2.7,0-4.1c0-1.4-0.2-2.6-0.5-3.5c-0.7,0.4-1.3,0.8-1.8,1.2c-0.8-2-1.3-3.5-1.7-4.4
		C205.7,36.9,205.4,36.2,205.5,36.2z M211,16.7l3.2-0.5l3.4-0.3c0.1,0.3,0.1,0.6,0.2,0.9c0.2,0.9,0.3,1.8,0.5,2.7v0.9
		c0,0.3,0.1,0.6,0.3,0.8c0.1,0.1,0.5,0.1,1.4,0.2c0.5-0.1,1-0.1,1.7-0.2v6.7l-0.6-0.3c-0.6-0.4-1.1-0.6-1.4-0.6
		c0.1-0.1,0.2-0.1,0.3-0.2c-0.4-0.2-0.6-0.3-0.8-0.3l0.3-0.3l-0.9-0.5c-1-0.5-1.5-0.7-1.5-0.8c0-0.1,0.1-0.1,0.2-0.2
		c-0.8-0.6-1.7-1-2.7-1.2c0.1-0.1,0.2-0.1,0.3-0.2c-0.3-0.1-0.7-0.2-1.1-0.5c-0.6-0.2-1-0.3-1.1-0.3c0.2-0.1,0.3-0.2,0.5-0.5
		c0.2-0.1,0.3-0.2,0.5-0.3c-0.2-0.1-0.4-0.1-0.6-0.2c0-0.1,0.1-0.1,0.2-0.2l-0.6-0.3c0.1-0.1,0.2-0.1,0.3-0.2
		c-0.5-0.5-0.8-1.1-1.1-2c0-0.2-0.1-0.4-0.2-0.8c0-0.3-0.1-0.6-0.2-0.8c0-0.1-0.1-0.2-0.2-0.3C210.8,16.9,210.8,16.7,211,16.7z
		 M222.8,16.8c6.1,0,12.1,0,18.1,0c0,7.4,0,14.8,0,22.1h-3h-0.6c-0.1,0-0.2,0-0.5,0c-0.4,0.2-0.5,0.8-0.3,1.8c0,0.7,0,1.3,0,2
		l-0.3-0.3c0-0.1,0.1-0.1,0.2-0.2l-0.2-0.2l0.3-0.3c-0.2-0.1-0.3-0.1-0.5-0.2l0.6-0.3c-0.2-0.1-0.4-0.1-0.6-0.2
		c0-0.1,0.1-0.1,0.2-0.2l-0.2-0.2c0-0.1,0.1-0.1,0.2-0.2c-0.3-0.2-0.8-0.4-1.4-0.6c-0.4-0.1-0.8-0.2-1.4-0.5l0.6-0.6
		c-0.1-0.1-0.2-0.1-0.3-0.2c0-0.1,0.1-0.1,0.2-0.2c-0.4-0.2-0.7-0.3-0.9-0.3c0.1-0.1,0.2-0.1,0.3-0.2c-1.2-0.7-2-1.2-2.4-1.7
		c0-0.1,0.1-0.1,0.2-0.2c-0.1-0.1-0.2-0.2-0.5-0.3c-0.6-0.3-1.1-0.5-1.5-0.5c0-0.1,0.1-0.1,0.2-0.2c-0.3-0.2-0.5-0.3-0.6-0.5
		c0.2-1,0.3-1.9,0.3-2.6c0.1-0.9,0.1-1.8,0.2-2.7c0-1.7,0-3.5,0-5.3h5.8v9.1c0,0.2-0.1,0.3-0.2,0.5c0,0.5-0.1,1-0.2,1.5
		c0,0.7-0.1,1.2-0.2,1.5c0.3,0,0.6,0.1,0.8,0.2c0.4,0,0.7,0,1.1,0c0.2-1.5,0.3-3.9,0.3-7.2c0-2.2-0.1-4.5-0.2-6.9
		c-1.9-0.3-4.1-0.4-6.6-0.2h-2.1c-0.2,0.9-0.3,2.4-0.3,4.4c0.1,1.5,0.1,3,0.2,4.6c0,1.2-0.1,2.1-0.2,2.7c-0.1-0.1-0.2-0.1-0.3-0.2
		c0-0.1,0.1-0.2,0.2-0.3c-0.2-0.2-0.3-0.3-0.5-0.3c-0.1-0.1-0.3-0.1-0.6-0.2c0.1-0.2,0.2-0.3,0.5-0.5l-0.2-0.2
		c0.1-0.1,0.2-0.1,0.3-0.2c-0.4-0.1-0.7-0.2-0.9-0.5c-0.2,0-0.5-0.1-0.9-0.3c0.1-0.1,0.2-0.2,0.5-0.3c-0.2-0.2-0.4-0.4-0.8-0.6
		l-0.6-0.3c0-0.1,0.1-0.1,0.2-0.2c-0.2-0.1-0.3-0.2-0.5-0.3c0.1-0.1,0.2-0.2,0.5-0.3c-0.1,0-0.2-0.1-0.5-0.3c-0.1,0-0.2-0.1-0.3-0.2
		l0.6-0.3c-0.2-0.1-0.3-0.2-0.5-0.3c0-0.1,0.1-0.1,0.2-0.2c-0.3-0.1-0.6-0.2-0.9-0.5c-0.1-0.2-0.1-0.6-0.2-1.2
		c0.1-0.3,0.1-0.7,0.2-1.1V20v-2.1v-0.3C222.7,17.1,222.7,16.8,222.8,16.8z M241,43.9c0.1,0.1,0.2,0.1,0.3,0.2
		c0.7,0.3,1,0.5,1.1,0.6c0.2,0.4,0.2,1.5,0,3.4c0,0.4,0,0.7,0,1.1c-0.2,0.2-0.3,0.4-0.3,0.8c-0.4-0.3-0.7-0.5-1.1-0.5
		c0.1-0.1,0.2-0.2,0.5-0.3c-0.1-0.1-0.1-0.2-0.2-0.3c0-0.1,0.1-0.1,0.2-0.2c-0.2-0.1-0.4-0.2-0.8-0.5c-0.2,0-0.4-0.1-0.6-0.2
		c0-0.1,0.1-0.1,0.2-0.2c-0.2-0.1-0.4-0.1-0.6-0.2c0.1-0.1,0.2-0.2,0.5-0.3c-0.4-0.2-0.7-0.3-0.9-0.3c0-0.1,0.1-0.1,0.2-0.2
		c-0.2-0.2-0.3-0.3-0.3-0.5l-0.3-0.6c0-0.1,0.1-0.1,0.2-0.2l-0.2-0.2c0.1-0.2,0.2-0.3,0.3-0.5c-0.2-0.1-0.3-0.1-0.5-0.2
		c0-0.1,0.1-0.1,0.2-0.2c-0.1-0.1-0.1-0.2-0.2-0.3c0-0.8,0.1-1.4,0.3-1.8c0.4,0.3,0.8,0.6,1.2,0.8C240.4,43.7,240.7,43.8,241,43.9z"
		/>
</g>
</svg>
