<svg id="Layer_5" enable-background="new 0 0 62 62" height="512" viewBox="0 0 62 62" width="512" xmlns="http://www.w3.org/2000/svg"><g><g><g><path d="m35 33h-34v-32h36v7.18c-.22-.06-.43-.14-.64-.21-1.92-.67-3.74-1.67-5.36-2.97h-12-14v24h14 14 .01c.06.66.46 1.24 1.06 1.53l.93.47z" fill="#ccd1d9"/></g><g><path d="m31 12v-7h-12-14v24h14 14 .01c-.01-.06-.01-.13-.01-.19 0-.52.21-1.01.57-1.38.92-.91 1.44-2.15 1.44-3.44l-.01-2.99c0-1.1.9-2 2-2h1c-3.87 0-7-3.13-7-7z" fill="#69d6f4"/></g><g><path d="m60.44 33.56c.34.35.56.84.56 1.37 0 .05 0 .09-.01.14l-.45 5.93h-6.48l.47-3.97-.01-.01c1.55-1.1 2.87-2.47 3.89-4.03l.01.01h.14.51c.53 0 1.02.22 1.37.56z" fill="#b27946"/></g><g><path d="m47 57c3.31 0 6-2.69 6-6v-1l1.06-9h6.48l-.97 12.61c-.32 4.17-3.8 7.39-7.98 7.39h-16.59c0-2.21 1.79-4 4-4h1 6z" fill="#d3a06c"/></g><g><path d="m52.46 38.27-1.46.73-1.2-1.6c-1.17-1.56-1.8-3.45-1.8-5.4l3.14-1.88c1.15-.7 1.86-1.94 1.86-3.29 0-2.11-1.72-3.83-3.83-3.83h-.17v-1c0-1.66-1.34-3-3-3h-8c-3.87 0-7-3.13-7-7v-7c1.62 1.3 3.44 2.3 5.36 2.97.21.07.42.15.64.21 1.74.54 3.56.82 5.4.82h3.15c8.53 0 15.45 6.92 15.45 15.45 0 2.93-.83 5.73-2.31 8.12-.09.14-.18.28-.28.42-1.02 1.56-2.34 2.93-3.89 4.03-.65.47-1.33.89-2.06 1.25z" fill="#656d78"/></g><g><path d="m48.31 41h.69c-1.1 0-2.1.45-2.83 1.17-.72.73-1.17 1.73-1.17 2.83v4h-6c0-3.01 1.87-5.7 4.68-6.76l.3-.11 1.79-.67c.82-.3 1.67-.46 2.54-.46z" fill="#ff826e"/></g><g><path d="m45 49v-4c0-1.1.45-2.1 1.17-2.83.73-.72 1.73-1.17 2.83-1.17.73 0 1.41.2 2 .54 1.2.69 2 1.98 2 3.46v5 1c0 3.31-2.69 6-6 6h-1-6-1c-1.1 0-2-.9-2-2v-4c0-1.1.9-2 2-2z" fill="#ff826e"/></g><g><path d="m30.17 55.83c.31.3.67.56 1.06.75v.01l-.05.57c-.08 1.04-.95 1.84-1.99 1.84h-4.38c-1.04 0-1.91-.8-1.99-1.84l-.82-10.16h10l-.32 4h-.68c-1.11 0-2 .9-2 2s.45 2.1 1.17 2.83z" fill="#ccd1d9"/></g><g><path d="m32 41c1.66 0 3 1.34 3 3s-1.34 3-3 3h-10c-1.66 0-3-1.34-3-3 0-1.39.94-2.54 2.22-2.88-.14-.35-.22-.72-.22-1.12 0-1.66 1.34-3 3-3 1.29 0 2.38.82 2.81 1.97.54-.59 1.32-.97 2.19-.97 1.66 0 3 1.34 3 3z" fill="#fcd770"/></g><g><path d="m33 57c-.64 0-1.24-.15-1.77-.42-.39-.19-.75-.45-1.06-.75-.72-.73-1.17-1.73-1.17-2.83s.89-2 2-2h.68.32c0-1.1.89-2 2-2h.17c.53 0 1.04.21 1.41.59l1.42 1.41v4c0 1.1.9 2 2 2z" fill="#f0d0b4"/></g><g><path d="m51 39v2.54c-.59-.34-1.27-.54-2-.54h-.69c-.87 0-1.72.16-2.54.46l-1.79.67c-.5-1.15-.81-2.38-.93-3.64l-3.82.48c-.15.02-.31.03-.46.03-1.04 0-1.98-.42-2.67-1.1-.68-.69-1.1-1.63-1.1-2.67v-.23h2c2.21 0 4-1.79 4-4h-6l-.93-.47c-.6-.29-1-.87-1.06-1.53-.01-.06-.01-.13-.01-.19 0-.52.21-1.01.57-1.38.92-.91 1.44-2.15 1.44-3.44l-.01-2.99c0-1.1.9-2 2-2h1 8c1.66 0 3 1.34 3 3v1h.17c2.11 0 3.83 1.72 3.83 3.83 0 1.35-.71 2.59-1.86 3.29l-3.14 1.88c0 1.95.63 3.84 1.8 5.4z" fill="#f0d0b4"/></g><g><path d="m13.34 11.34c1.45-1.44 3.45-2.34 5.66-2.34 4.42 0 8 3.58 8 8s-3.58 8-8 8-8-3.58-8-8c0-2.21.9-4.21 2.34-5.66z" fill="#ff826e"/></g><g><path d="m35 31h6c0 2.21-1.79 4-4 4h-2v-2z" fill="#ff826e"/></g></g><g><path d="m41 22c-1.654 0-3 1.346-3 3h2c0-.552.449-1 1-1s1 .448 1 1h2c0-1.654-1.346-3-3-3z"/><path d="m48 26h2v2h-2z"/><path d="m60.081 32.19c1.239-2.331 1.919-4.973 1.919-7.739 0-9.071-7.38-16.451-16.451-16.451h-3.146c-1.492 0-2.972-.2-4.403-.578v-7.422h-38v34h34v1.234c0 2.628 2.138 4.766 4.766 4.766.198 0 .396-.013.591-.037l2.835-.354c.118.676.29 1.342.514 1.991-2.58 1.229-4.344 3.728-4.64 6.564-.585.193-1.088.556-1.451 1.038l-.325-.325c-.568-.565-1.321-.877-2.121-.877h-.172c-.386 0-.752.081-1.092.214l.027-.336c1.756-.422 3.068-1.995 3.068-3.878 0-1.896-1.327-3.489-3.102-3.898-.409-1.775-2.001-3.102-3.898-3.102-.677 0-1.326.168-1.903.484-.746-.919-1.879-1.484-3.097-1.484-2.206 0-4 1.794-4 4 0 .177.012.354.036.528-1.234.697-2.036 2.015-2.036 3.472 0 1.884 1.312 3.456 3.068 3.879l.754 9.361c.125 1.548 1.438 2.76 2.99 2.76h4.377c1.321 0 2.461-.881 2.851-2.097.31.061.629.097.957.097h2.029c-.635.838-1.026 1.87-1.026 3v1h17.592c4.673 0 8.615-3.65 8.974-8.31l1.426-18.538c.005-.076.008-.15.008-.226 0-1.258-.802-2.324-1.919-2.736zm-1.007 1.81c.511 0 .926.415.923.997l-.385 5.003h-4.429l.286-2.431c1.352-1.017 2.529-2.218 3.492-3.568zm-6.134 7.954c-.13-.167-.252-.339-.404-.491-.166-.166-.352-.301-.536-.44v-1.404l.906-.453c.132-.066.257-.141.386-.21zm-7.391-31.954c7.969 0 14.451 6.482 14.451 14.451 0 5.509-3.061 10.461-7.988 12.925l-.713.356-.699-.931c-.921-1.229-1.472-2.719-1.581-4.246l2.635-1.581c1.448-.869 2.346-2.455 2.346-4.143 0-2.381-1.73-4.364-4-4.76v-.071c0-2.206-1.794-4-4-4h-8c-3.309 0-6-2.691-6-6v-5.054c3.09 1.981 6.717 3.054 10.403 3.054zm-11.543 13.985c0 1.021-.415 2.02-1.139 2.737-.356.353-.601.799-.739 1.277h-12.128v-2.059c4.493-.499 8-4.316 8-8.941s-3.507-8.442-8-8.941v-2.058h10v6c0 3.193 1.884 5.946 4.595 7.229-.378.512-.592 1.124-.591 1.773zm-15.006.015c-3.86 0-7-3.141-7-7 0-1.57.526-3.015 1.402-4.184l1.891 1.891 1.414-1.414-1.891-1.891c1.169-.876 2.614-1.402 4.184-1.402 3.86 0 7 3.141 7 7s-3.14 7-7 7zm-1-15.941c-1.733.193-3.316.88-4.611 1.916l-2.682-2.682-1.414 1.414 2.682 2.682c-1.036 1.295-1.723 2.878-1.916 4.611h-2.059v2h2.059c.463 4.165 3.777 7.478 7.941 7.941v2.059h-12v-22h12zm-16 23.941v-30h34v4.747c-1.566-.626-3.047-1.466-4.375-2.529-.181-.145-.402-.21-.625-.21v-.008h-27v26h28.252c.27.609.746 1.118 1.37 1.429l.378.189v.382zm37.829 0c-.413 1.164-1.525 2-2.829 2h-1v-2zm7.047 5.008-7.769.971c-1.358.178-2.607-.721-2.982-1.979h.875c2.757 0 5-2.243 5-5v-1h-6.764l-.721-.36c-.317-.16-.515-.479-.515-.834 0-.251.098-.486.276-.663 1.1-1.091 1.731-2.606 1.73-4.158l-.002-2.983c0-.268.104-.519.293-.708.189-.19.44-.294.707-.294h8.996c1.103 0 2 .897 2 2v2h1.169c1.561 0 2.831 1.27 2.831 2.831 0 .988-.527 1.919-1.375 2.428l-3.625 2.175v.566c0 2.148.71 4.279 2 6.001l1 1.332v.767c-.325-.066-.659-.101-.998-.101-.001 0-.001 0-.002 0-.003 0-.007.001-.01.001h-.681c-.99 0-1.961.177-2.885.523l-.861.322c-.162-.486-.289-.982-.381-1.486l2.942-.368zm-2.843 6.173.367-.138c-.26.611-.4 1.272-.4 1.956v3.001h-3.915c.359-2.165 1.854-4.033 3.948-4.819zm-6.033 7.819c0-.552.449-1 1-1h5.466l1.702 2.555 1.664-1.109-1.831-2.748v-3.698c0-.802.312-1.555.878-2.121.564-.564 1.314-.875 2.112-.878h.009v-.001h.001c.8 0 1.553.312 2.119.878.568.565.88 1.318.88 2.12v6.001c0 2.757-2.243 5-5 5l-8 .001c-.551 0-1-.448-1-1zm-16-5c-1.103 0-2-.897-2-2 0-.894.609-1.684 1.481-1.92l1.086-.294-.42-1.044c-.097-.243-.147-.493-.147-.742 0-1.103.897-2 2-2 .828 0 1.579.527 1.868 1.313l.564 1.529 1.108-1.195c.386-.418.905-.647 1.46-.647 1.103 0 2 .897 2 2v1h1c1.103 0 2 .897 2 2s-.897 2-2 2zm7.188 12h-4.377c-.517 0-.955-.404-.997-.92l-.731-9.08h7.833l-.163 2.025c-1.539.127-2.756 1.405-2.756 2.975 0 1.709.865 3.219 2.177 4.121-.062.495-.483.879-.986.879zm.809-5c0-.552.449-1 1-1h2v-1c0-.552.449-1 1-1h.172c.263 0 .521.106.707.292l1.124 1.123v3.585c0 .352.072.686.184 1h-3.187c-1.654 0-3-1.346-3-3zm21.595 7h-15.42c.413-1.164 1.525-2 2.829-2h1 6v-.001h1c3.859 0 7-3.141 7-7v-.94l.947-8.059h4.51l-.887 11.536c-.279 3.625-3.344 6.464-6.979 6.464z"/><path d="m20 12h-2v2h2v2h-2v2h2v2h-2v2h2c1.103 0 2-.897 2-2v-2c0-.366-.106-.705-.278-1 .172-.295.278-.634.278-1v-2c0-1.103-.897-2-2-2z"/></g></g></svg>